<svg id="Layer_1" data-name="Layer 1" xmlns="http://www.w3.org/2000/svg" viewBox="0 0 1305.49 40.5"><defs><style>.cls-1{fill:#1a78b5;}.cls-2{font-size:18px;fill:#fff;font-family:MyriadPro-Regular, Myriad Pro;}.cls-3{letter-spacing:-0.01em;}.cls-4{fill:#aec7e8;}.cls-5{fill:#f47f20;}.cls-6{letter-spacing:0em;}.cls-7{letter-spacing:0em;}.cls-8{fill:#fcba78;}.cls-9{letter-spacing:0em;}.cls-10{letter-spacing:0em;}.cls-11{letter-spacing:0.02em;}.cls-12{fill:#29a249;}.cls-13{letter-spacing:-0.01em;}.cls-14{letter-spacing:-0.01em;}.cls-15{fill:#9bcf89;}.cls-16{fill:#d72b29;}.cls-17{letter-spacing:0em;}</style></defs><title>Untitled-2</title><rect class="cls-1" width="40.5" height="40.5"/><text class="cls-2" transform="translate(93.13 25.28)">Ho<tspan class="cls-3" x="21.62" y="0">t</tspan><tspan x="27.47" y="0">el</tspan></text><rect class="cls-4" x="186.5" width="40.5" height="40.5"/><text class="cls-2" transform="translate(275.18 25.28)">Health</text><rect class="cls-5" x="373" width="40.5" height="40.5"/><text class="cls-2" transform="translate(448.71 25.28)"><tspan class="cls-6">E</tspan><tspan x="8.78" y="0">duc</tspan><tspan class="cls-7" x="36.92" y="0">a</tspan><tspan x="45.52" y="0">tion</tspan></text><rect class="cls-8" x="559.49" width="40.5" height="40.5"/><text class="cls-2" transform="translate(646.23 25.28)"><tspan class="cls-9">A</tspan><tspan x="10.96" y="0">i</tspan><tspan class="cls-10" x="15.17" y="0">r</tspan><tspan x="21.13" y="0">po</tspan><tspan class="cls-11" x="41.26" y="0">r</tspan><tspan x="47.57" y="0">t</tspan></text><rect class="cls-12" x="745.99" width="40.5" height="40.5"/><text class="cls-2" transform="translate(814.45 25.28)"><tspan class="cls-13">C</tspan><tspan x="10.24" y="0">omme</tspan><tspan class="cls-14" x="59.17" y="0">r</tspan><tspan x="64.87" y="0">cial</tspan></text><rect class="cls-15" x="932.49" width="40.5" height="40.5"/><text class="cls-2" transform="translate(1004.84 25.28)"><tspan class="cls-10">R</tspan><tspan x="9.76" y="0">eside</tspan><tspan class="cls-6" x="49.28" y="0">n</tspan><tspan x="59.2" y="0">tial</tspan></text><rect class="cls-16" x="1118.99" width="40.5" height="40.5"/><text class="cls-2" transform="translate(1195.44 25.28)"><tspan class="cls-17">M</tspan><tspan x="14.53" y="0">unicipal</tspan></text></svg>